<svg id="full_logo" xmlns="http://www.w3.org/2000/svg" width="363" height="120" viewBox="0 0 363 120">
  <g id="icon">
    <path id="Union_6" data-name="Union 6" d="M11.069,25V15.706L4.544,22.191,2.409,20.07,8.517,14H0V11H8.85L2.322,4.513,4.458,2.392l6.612,6.57V0h3.02V8.463L20.2,2.392l2.135,2.121L15.805,11h9.353v3h-9.02l6.108,6.07-2.135,2.121-6.023-5.985V25Z" transform="translate(20.126 20)" fill="#e06666"/>
    <path id="Path_1" data-name="Path 1" d="M.109.012,5.115,0,5.006,45.234,0,45.246Z" transform="translate(44.774 69.252) rotate(-120)" fill="#676767"/>
    <path id="Union_7" data-name="Union 7" d="M33.137,87.072a9.956,9.956,0,0,1,0-14.142,10.023,10.023,0,0,1,4.6-2.616V19.687a10.022,10.022,0,0,1-4.6-2.616,9.954,9.954,0,0,1,0-14.141,10.108,10.108,0,0,1,14.232,0,9.979,9.979,0,0,1,2.338,10.51l7.873,5.277a10.2,10.2,0,0,1,.715-.788,10.107,10.107,0,0,1,14.231,0,9.956,9.956,0,0,1,0,14.142,10.109,10.109,0,0,1-14.231,0A9.9,9.9,0,0,1,55.348,25a10.066,10.066,0,0,1,.137-1.657l-8.637-5.788a10,10,0,0,1-4.078,2.132V70.313a10.022,10.022,0,0,1,4.6,2.616,9.958,9.958,0,0,1,0,14.142,10.111,10.111,0,0,1-14.232,0ZM35.222,80a5.032,5.032,0,1,0,5.031-5A5.021,5.021,0,0,0,35.222,80ZM60.38,25a5.032,5.032,0,1,0,5.031-5A5.021,5.021,0,0,0,60.38,25ZM35.222,10a5.032,5.032,0,1,0,5.031-5A5.02,5.02,0,0,0,35.222,10ZM2.947,62.071a9.956,9.956,0,0,1,0-14.142,10.109,10.109,0,0,1,14.231,0,9.956,9.956,0,0,1,0,14.142,10.107,10.107,0,0,1-14.231,0ZM5.032,55a5.032,5.032,0,1,0,5.031-5A5.02,5.02,0,0,0,5.032,55Z" transform="translate(25.158 15)" fill="#363636"/>
    <rect id="Rectangle_24" data-name="Rectangle 24" width="120" height="120" fill="none"/>
  </g>
  <g id="logotype" transform="translate(104 24)">
    <rect id="lt_frame" data-name="lt frame" width="259" height="80" fill="none"/>
    <g id="Buildnn" transform="translate(20.276 16.314)">
      <path id="Path_38" data-name="Path 38" d="M.034.005h3.75v23.75H.034Z" transform="matrix(0.788, 0.616, -0.616, 0.788, 156.668, 17.524)" fill="#676767"/>
      <path id="Subtraction_2" data-name="Subtraction 2" d="M148.624,43.686a10.47,10.47,0,0,1-4.965-1.179,11.446,11.446,0,0,1-3.79-3.257,15.8,15.8,0,0,1-2.433-4.9,20.682,20.682,0,0,1-.867-6.078v-.59a21.834,21.834,0,0,1,.853-6.247,15.054,15.054,0,0,1,2.434-4.9,11.364,11.364,0,0,1,3.817-3.2,10.834,10.834,0,0,1,5.007-1.151,11.515,11.515,0,0,1,4.74.912,9.964,9.964,0,0,1,3.51,2.653V0H162.1V43.125h-4.755l-.224-3.2a9.946,9.946,0,0,1-3.607,2.808A11.782,11.782,0,0,1,148.624,43.686Zm1.343-27.093a7.358,7.358,0,0,0-3.734.9,7.464,7.464,0,0,0-2.545,2.428,11.192,11.192,0,0,0-1.468,3.538,18.361,18.361,0,0,0-.476,4.226v.59a18.186,18.186,0,0,0,.476,4.212,11.021,11.021,0,0,0,1.468,3.509,7.422,7.422,0,0,0,2.53,2.4,7.324,7.324,0,0,0,3.693.884,8.549,8.549,0,0,0,2.377-.308,7.067,7.067,0,0,0,1.93-.885,7.234,7.234,0,0,0,1.539-1.375,9.637,9.637,0,0,0,1.174-1.783V20.833a8.81,8.81,0,0,0-2.713-3.047A7.271,7.271,0,0,0,149.966,16.593ZM45.057,43.686a11.941,11.941,0,0,1-4.307-.744,8.3,8.3,0,0,1-3.3-2.316,10.852,10.852,0,0,1-2.111-4A20.217,20.217,0,0,1,34.6,30.8V12.746h5.174V30.855a18.026,18.026,0,0,0,.391,4.1,6.532,6.532,0,0,0,1.174,2.6,4.218,4.218,0,0,0,1.916,1.362,7.993,7.993,0,0,0,2.615.393,9.124,9.124,0,0,0,5.1-1.291,7.865,7.865,0,0,0,2.895-3.482V12.746h5.2V43.125h-4.7l-.308-4.183a10.843,10.843,0,0,1-3.776,3.5A10.7,10.7,0,0,1,45.057,43.686Zm84.269-.561h-25.34V38.633h10.292V4.52H103.986V0h15.466V38.633h9.873v4.491Zm-34.373,0H69.613V38.633H79.905V17.267H69.613v-4.52H85.079V38.633h9.873v4.491Zm-81.919,0H0V2.246H12.11a20.276,20.276,0,0,1,4.923.66,13.221,13.221,0,0,1,4.279,1.951,9.854,9.854,0,0,1,2.993,3.369,9.967,9.967,0,0,1,1.09,4.913,8.845,8.845,0,0,1-.518,2.921,8.374,8.374,0,0,1-1.343,2.373,9.388,9.388,0,0,1-2,1.838A14.669,14.669,0,0,1,19.1,21.618a11.258,11.258,0,0,1,2.978,1.362,9.537,9.537,0,0,1,3.86,4.956,10.323,10.323,0,0,1,.546,3.4,10.777,10.777,0,0,1-1.09,5.055A10.965,10.965,0,0,1,22.4,40.05a13.705,13.705,0,0,1-4.32,2.26A17.105,17.105,0,0,1,13.034,43.125ZM5.2,24.005V38.717h7.971a9.626,9.626,0,0,0,3.076-.548,8.489,8.489,0,0,0,2.573-1.446A6.788,6.788,0,0,0,20.6,34.45a6.928,6.928,0,0,0,.657-3.061,7.257,7.257,0,0,0-.573-3.088,6.638,6.638,0,0,0-1.664-2.288,7.525,7.525,0,0,0-2.489-1.446,10.225,10.225,0,0,0-3.077-.561H5.2Zm0-17.324v13h7.216a10.28,10.28,0,0,0,2.853-.462,8.082,8.082,0,0,0,2.489-1.263,6.5,6.5,0,0,0,1.762-2.036,5.711,5.711,0,0,0,.671-2.808,6.052,6.052,0,0,0-.658-2.919,5.732,5.732,0,0,0-1.762-1.979,7.713,7.713,0,0,0-2.545-1.137,13.057,13.057,0,0,0-2.951-.394ZM82.338,7.721A3.02,3.02,0,0,1,80,6.878a3.016,3.016,0,0,1-.77-2.106A3.211,3.211,0,0,1,80,2.6a3.507,3.507,0,0,1,4.656,0,3.177,3.177,0,0,1,.783,2.176,2.985,2.985,0,0,1-.783,2.106A3.032,3.032,0,0,1,82.338,7.721Z" transform="translate(0)" fill="#363636"/>
      <path id="Intersection_2" data-name="Intersection 2" d="M19.746,36.733V17.621A11.35,11.35,0,0,0,19.3,14.2a5.462,5.462,0,0,0-1.328-2.275,5.184,5.184,0,0,0-2.154-1.263,9.907,9.907,0,0,0-2.923-.393,8.1,8.1,0,0,0-4.572,1.305A9.623,9.623,0,0,0,5.174,15.01V36.733H0V6.419H4.643l.364,4.492A12.026,12.026,0,0,1,9.062,7.219a11.1,11.1,0,0,1,5.37-1.361,13.142,13.142,0,0,1,4.321.673,8.27,8.27,0,0,1,3.314,2.106,9.58,9.58,0,0,1,2.111,3.636,16.48,16.48,0,0,1,.742,5.236V36.733ZM43.863,18.047V6.861a6.66,6.66,0,0,0-.261-2,3.191,3.191,0,0,0-.774-1.326A3.032,3.032,0,0,0,41.571,2.8a5.783,5.783,0,0,0-1.706-.229,4.725,4.725,0,0,0-2.667.762,5.606,5.606,0,0,0-1.835,2.007V18.047H32.346V.327h2.708l.212,2.62A7.032,7.032,0,0,1,37.631.794,6.483,6.483,0,0,1,40.763,0a7.652,7.652,0,0,1,2.52.393,4.808,4.808,0,0,1,1.933,1.229,5.579,5.579,0,0,1,1.232,2.121A9.621,9.621,0,0,1,46.881,6.8V18.047Z" transform="translate(171.92 6.327)" fill="#e06666"/>
    </g>
  </g>
</svg>
