<svg version="1.1" viewBox="0.0 0.0 60.0 60.0" fill="none" stroke="none" stroke-linecap="square" stroke-miterlimit="10" xmlns:xlink="http://www.w3.org/1999/xlink" xmlns="http://www.w3.org/2000/svg"><clipPath id="p.0"><path d="m0 0l60.0 0l0 60.0l-60.0 0l0 -60.0z" clip-rule="nonzero"/></clipPath><g clip-path="url(#p.0)"><path fill="#000000" fill-opacity="0.0" d="m0 0l60.0 0l0 60.0l-60.0 0z" fill-rule="evenodd"/><path fill="#e06666" d="m26.222197 17.530546l0 0c0 -4.64441 3.7650394 -8.409449 8.409449 -8.409449l0 0c2.2303238 0 4.369301 0.885993 5.946377 2.4630709c1.5770798 1.5770779 2.4630737 3.716054 2.4630737 5.9463778l0 0c0 4.644411 -3.7650414 8.409449 -8.409451 8.409449l0 0c-4.644409 0 -8.409449 -3.7650375 -8.409449 -8.409449z" fill-rule="evenodd"/><path fill="#e06666" d="m45.616642 7.709974l0 0c0 -1.730782 1.4171753 -3.1338582 3.1653519 -3.1338582l0 0c0.83950424 0 1.6446266 0.3301735 2.238243 0.9178858c0.5936203 0.5877123 0.9271126 1.3848214 0.9271126 2.2159724l0 0c0 1.730782 -1.4171791 3.1338582 -3.1653557 3.1338582l0 0c-1.7481766 0 -3.1653519 -1.4030762 -3.1653519 -3.1338582z" fill-rule="evenodd"/><path fill="#e06666" d="m43.035816 26.922169l0 0c0 -0.9480171 0.76851654 -1.7165356 1.7165337 -1.7165356l0 0c0.4552536 0 0.89186096 0.18084908 1.2137756 0.50276184c0.32191086 0.32191277 0.50276184 0.7585201 0.50276184 1.2137737l0 0c0 0.9480152 -0.76852036 1.7165356 -1.7165375 1.7165356l0 0c-0.9480171 0 -1.7165337 -0.76852036 -1.7165337 -1.7165356z" fill-rule="evenodd"/><path fill="#2c2c2c" d="m22.41076 31.094488l4.598425 0l0 26.204725l-4.598425 0z" fill-rule="evenodd"/><path fill="#2c2c2c" d="m36.76765 44.136482l4.598427 0l0 13.133858l-4.598427 0z" fill-rule="evenodd"/><path fill="#2c2c2c" d="m8.053173 27.947506l4.598425 0l0 29.322834l-4.598425 0z" fill-rule="evenodd"/><path fill="#2c2c2c" d="m15.232284 25.939632l4.598426 0l0 31.338581l-4.598426 0z" fill-rule="evenodd"/><path fill="#2c2c2c" d="m29.58924 38.070866l4.598425 0l0 19.2126l-4.598425 0z" fill-rule="evenodd"/><path fill="#2c2c2c" d="m43.946194 46.52231l4.598427 0l0 10.740158l-4.598427 0z" fill-rule="evenodd"/></g></svg>